# xmcd
#
# Track frame offsets:
#        150
#        20317
#        39040
#        51455
#        66785
#        85532
#        97230
#        123322
#        138250
#        153910
#        168185
#        180650
#        195390
#        207215
#        224345
#        246220
#        262765
#        284590
#        301840
#        319390
#
# Disc length: 4480 seconds
#
# Revision: 1
# Processed by: cddbd v1.5.1PL2 Copyright (c) Steve Scherf et al.
# Submitted via: ExactAudioCopy v0.95b3
#
DISCID=11117e14
DTITLE=Billy Preston - Ultimate Collection
DYEAR=1900
DGENRE=Soul
TTITLE0=Will It Go Round In Circles
TTITLE1=Outa-Space
TTITLE2=Slaughter
TTITLE3=I Wrote A Simple Song
TTITLE4=That's The Way God Planned It (Live)
TTITLE5=Struttin'
TTITLE6=Fancy Lady
TTITLE7=You're So Unique
TTITLE8=Space Race
TTITLE9=Get Back
TTITLE10=Blackbird
TTITLE11=Wide Stride (Instrumental)
TTITLE12=Nothing From Nothing
TTITLE13=I'm Really Gonna Miss You
TTITLE14=You Are So Beautiful
TTITLE15=With You I'm Born Again (duet with Syreeta)
TTITLE16=Since I Held You Close
TTITLE17=Go For It (duet with Syreeta)
TTITLE18=One More Time For Love (duet with Syreeta)
TTITLE19=I'm Never Gonna Say Goodbye
EXTD=
EXTT0=
EXTT1=
EXTT2=
EXTT3=
EXTT4=
EXTT5=
EXTT6=
EXTT7=
EXTT8=
EXTT9=
EXTT10=
EXTT11=
EXTT12=
EXTT13=
EXTT14=
EXTT15=
EXTT16=
EXTT17=
EXTT18=
EXTT19=
PLAYORDER=
